<svg xmlns="http://www.w3.org/2000/svg" width="635" height="153" viewBox="0 0 2540 612" role="img" aria-label="Shouldly — The way assertions should be">
<g transform="translate(0,612) scale(0.1,-0.1)" fill="#ffffff" stroke="none">
<path d="M986 6105 c-10 -7 -44 -16 -75 -20 -77 -8 -243 -59 -316 -98 -11 -6
-33 -17 -50 -26 -106 -53 -216 -155 -289 -266 -85 -132 -116 -232 -123 -401
-6 -118 13 -247 47 -334 10 -25 21 -52 24 -60 6 -16 33 -60 77 -126 56 -83
227 -234 332 -293 20 -12 52 -30 71 -40 69 -39 73 -41 211 -101 22 -10 61 -27
88 -39 26 -12 54 -21 62 -21 8 0 32 -9 52 -20 21 -11 46 -20 57 -20 10 0 37
-9 60 -19 23 -11 68 -30 101 -43 76 -29 167 -90 211 -142 31 -36 34 -46 34
-100 0 -67 -23 -128 -66 -179 -98 -117 -384 -129 -579 -24 -11 6 -36 19 -55
29 -19 10 -44 24 -55 31 -32 20 -213 166 -220 177 -12 19 -84 60 -105 60 -11
0 -37 -11 -58 -24 -51 -32 -382 -347 -382 -363 0 -7 -9 -18 -20 -25 -13 -8
-20 -24 -20 -43 0 -19 7 -35 20 -43 11 -7 20 -18 20 -25 0 -19 229 -241 270
-262 19 -10 51 -30 70 -45 19 -15 49 -33 65 -42 17 -8 40 -20 53 -26 12 -7 31
-16 42 -22 11 -5 28 -14 38 -19 55 -29 104 -51 115 -51 7 0 25 -7 41 -15 16
-8 56 -22 90 -31 33 -8 77 -19 96 -24 19 -5 89 -14 154 -20 142 -14 376 2 471
31 33 10 67 19 75 19 16 0 99 30 170 62 50 22 67 31 119 61 20 11 45 25 56 31
52 28 161 125 213 190 87 109 95 121 159 261 44 98 70 306 54 445 -22 197 -89
338 -222 471 -49 49 -199 159 -217 159 -4 0 -18 9 -32 20 -14 11 -32 20 -40
20 -8 0 -26 9 -40 20 -14 11 -32 20 -40 20 -8 0 -33 8 -55 19 -85 40 -136 61
-150 61 -8 0 -32 9 -52 20 -21 11 -47 20 -58 20 -11 1 -38 9 -60 20 -22 11
-49 20 -60 20 -11 0 -33 7 -48 15 -15 8 -42 19 -60 24 -71 22 -136 48 -160 64
-15 9 -30 17 -35 17 -4 0 -29 21 -54 48 -58 59 -75 113 -58 181 14 54 22 66
73 98 51 32 116 51 200 59 84 8 157 -10 275 -69 92 -46 84 -41 197 -131 45
-35 95 -67 112 -70 56 -13 92 14 256 188 175 186 217 238 217 273 0 54 -103
165 -235 252 -97 64 -98 64 -205 117 -106 52 -155 68 -288 93 -51 10 -98 23
-104 29 -19 19 -437 16 -462 -3z"/>
<path d="M8195 6091 c-11 -4 -56 -9 -101 -10 -44 0 -116 -10 -159 -21 -43 -11
-85 -20 -94 -20 -9 0 -29 -7 -44 -15 -16 -8 -47 -20 -69 -25 -22 -6 -81 -32
-131 -56 -128 -63 -150 -75 -165 -91 -7 -7 -17 -13 -22 -13 -5 0 -53 -35 -107
-79 -88 -70 -191 -171 -263 -256 -40 -47 -160 -233 -160 -247 0 -7 -9 -24 -20
-38 -11 -14 -20 -32 -20 -40 0 -8 -9 -28 -20 -45 -11 -16 -20 -37 -20 -45 0
-8 -6 -27 -14 -42 -8 -15 -17 -42 -21 -60 -3 -18 -15 -62 -25 -98 -29 -105
-42 -252 -37 -420 5 -176 20 -305 42 -357 8 -19 15 -43 15 -52 0 -22 54 -162
91 -233 5 -10 14 -28 21 -40 53 -104 93 -165 168 -258 43 -52 104 -120 137
-151 66 -63 208 -179 219 -179 4 0 15 -6 23 -14 22 -19 144 -84 231 -123 73
-33 161 -61 285 -92 183 -44 593 -37 730 13 22 9 49 15 60 16 11 0 38 9 60 20
22 11 48 19 58 20 10 0 37 10 60 22 23 12 50 25 60 30 9 4 25 12 35 17 9 5 24
12 32 15 8 3 31 16 51 28 177 112 338 257 455 408 44 57 63 86 112 165 33 54
112 226 112 246 1 8 9 32 20 54 11 22 19 50 20 61 0 12 7 41 15 65 9 24 23
112 32 194 13 127 14 173 4 300 -12 151 -32 245 -57 266 -11 9 -30 0 -85 -37
-40 -27 -92 -67 -116 -89 l-44 -40 12 -113 c13 -125 2 -283 -26 -361 -8 -24
-15 -53 -15 -65 -1 -11 -9 -39 -20 -61 -11 -22 -19 -46 -20 -54 0 -20 -80
-193 -112 -246 -7 -11 -25 -40 -41 -65 -75 -121 -177 -224 -300 -305 -71 -46
-103 -66 -117 -71 -8 -3 -23 -10 -32 -15 -10 -5 -26 -13 -35 -17 -10 -5 -37
-18 -60 -30 -23 -12 -50 -22 -60 -22 -10 -1 -36 -9 -58 -20 -22 -11 -49 -20
-60 -20 -11 -1 -38 -7 -60 -16 -22 -8 -92 -21 -155 -29 -150 -19 -249 -9 -440
44 -123 35 -182 59 -328 138 -37 19 -74 42 -83 49 -8 8 -19 14 -23 14 -4 0
-41 27 -81 60 -112 91 -206 214 -282 365 -5 11 -15 29 -20 40 -69 130 -119
296 -144 476 -13 98 -1 233 31 349 10 36 22 80 25 98 4 18 13 45 21 60 8 15
14 34 14 42 0 8 9 29 20 45 11 17 20 37 20 45 0 8 9 26 20 40 11 14 20 31 20
38 0 11 124 208 140 222 3 3 18 21 34 40 30 36 182 160 196 160 5 0 15 6 22
13 15 16 37 28 165 91 50 24 111 50 135 56 24 7 48 16 53 20 6 5 40 16 75 24
36 8 85 20 110 27 27 7 105 12 195 12 125 -1 161 -4 214 -22 35 -12 71 -21 80
-21 8 0 40 -10 71 -21 165 -65 209 -83 252 -106 25 -14 51 -24 56 -22 5 2 53
50 106 106 l97 102 -28 25 c-15 15 -37 29 -48 32 -11 4 -30 15 -42 24 -32 25
-315 140 -344 140 -9 0 -36 7 -60 16 -39 14 -160 27 -359 39 -36 3 -74 1 -85
-4z"/>
<path d="M3280 6041 c-15 -4 -32 -21 -42 -41 -17 -33 -18 -125 -18 -1498 0
-935 4 -1470 10 -1482 19 -35 64 -40 371 -40 344 0 384 6 406 57 10 26 13 149
13 612 l0 581 23 5 c12 3 240 4 507 3 l485 -3 5 -602 c6 -663 1 -619 69 -642
46 -15 615 -15 662 0 19 6 42 20 52 31 16 19 17 105 17 1494 l0 1473 -24 28
-24 28 -319 3 c-175 2 -333 0 -352 -3 -18 -3 -44 -18 -57 -32 l-24 -26 0 -488
c0 -268 -3 -494 -6 -503 -5 -14 -58 -16 -491 -16 -315 0 -491 4 -504 10 -18
10 -19 26 -19 493 0 439 -2 485 -18 517 -12 25 -26 37 -47 41 -41 9 -644 9
-675 0z"/>
<path d="M10728 6039 c-15 -6 -33 -25 -43 -45 -15 -31 -16 -121 -12 -1032 3
-653 8 -1014 15 -1047 26 -119 42 -182 56 -215 8 -19 25 -62 37 -95 13 -33 28
-67 34 -75 7 -8 24 -37 40 -65 30 -54 125 -173 171 -217 40 -37 166 -128 178
-128 5 0 19 -8 30 -19 12 -10 48 -28 81 -41 33 -12 74 -28 90 -36 52 -23 186
-53 334 -75 181 -26 554 -6 678 36 24 8 54 15 66 15 12 1 40 9 62 20 22 11 45
19 51 20 14 0 104 43 155 73 174 104 302 243 397 434 5 10 16 32 25 48 25 49
59 155 74 230 37 195 37 194 38 1180 0 929 -1 971 -19 997 -30 45 -69 49 -411
46 l-314 -3 -30 -29 -30 -29 -3 -956 c-3 -897 -5 -959 -22 -1011 -10 -30 -23
-64 -29 -75 -6 -11 -20 -38 -31 -60 -30 -58 -124 -147 -187 -177 -90 -44 -180
-62 -268 -54 -90 8 -157 24 -194 49 -14 9 -32 17 -38 17 -14 0 -149 136 -149
150 0 6 -8 23 -17 37 -10 14 -27 49 -38 77 -19 50 -20 74 -23 1014 l-2 963
-26 38 c-19 30 -34 40 -62 45 -60 10 -635 5 -664 -5z"/>
<path d="M14193 6043 c-13 -2 -32 -17 -43 -33 -20 -28 -20 -36 -18 -1506 l3
-1478 34 -23 34 -23 927 0 c798 0 933 2 963 15 67 28 67 26 67 357 l0 297 -31
36 -31 35 -563 0 c-310 0 -570 3 -579 6 -14 6 -16 113 -16 1115 0 1244 4 1179
-69 1199 -35 9 -630 12 -678 3z"/>
<path d="M16993 6043 c-13 -2 -32 -17 -43 -33 -20 -28 -20 -39 -20 -1490 0
-1626 -5 -1509 68 -1529 23 -7 232 -11 572 -11 582 0 716 8 890 54 132 34 152
41 291 105 25 12 51 21 56 21 5 0 18 9 28 20 10 11 23 20 29 20 10 0 35 16
132 81 151 103 385 369 439 499 4 8 11 23 16 33 5 9 13 25 18 35 5 9 18 36 30
58 11 23 21 48 21 55 1 8 9 32 20 54 11 22 19 50 20 61 0 12 7 41 15 64 20 57
45 263 45 370 -1 160 -29 347 -72 465 -5 17 -16 48 -22 70 -6 22 -19 54 -29
72 -9 18 -17 38 -17 45 0 7 -9 24 -20 38 -11 14 -20 30 -20 37 0 12 -68 120
-122 193 -81 111 -363 370 -402 370 -7 0 -21 9 -31 20 -10 11 -23 20 -29 20
-6 0 -22 9 -36 20 -14 11 -31 20 -38 20 -7 0 -25 8 -39 17 -40 26 -190 78
-363 125 -84 23 -90 23 -725 24 -352 1 -650 0 -662 -3z m1202 -761 c63 -12
145 -41 200 -74 11 -6 25 -14 31 -17 107 -56 238 -192 295 -306 9 -16 20 -39
26 -50 53 -99 79 -269 63 -404 -11 -95 -45 -211 -72 -253 -10 -14 -18 -31 -18
-38 0 -17 -52 -90 -109 -153 -47 -50 -175 -147 -197 -147 -5 0 -20 -9 -34 -20
-14 -11 -32 -20 -40 -20 -8 0 -28 -7 -43 -15 -56 -29 -206 -48 -387 -49 l-175
-1 -3 769 c-2 583 1 772 10 783 10 12 45 14 202 10 105 -3 218 -10 251 -15z"/>
<path d="M20472 6043 c-12 -2 -33 -21 -47 -41 l-25 -37 0 -1452 c0 -937 4
-1461 10 -1478 21 -56 -2 -55 998 -55 1015 0 972 -3 1012 63 19 30 20 51 20
311 0 265 -1 280 -21 312 -11 19 -29 39 -39 44 -12 6 -233 10 -589 10 -347 0
-572 4 -576 9 -3 6 -5 510 -5 1121 0 1230 4 1166 -62 1189 -30 11 -624 14
-676 4z"/>
<path d="M22536 6035 c-14 -14 -13 -21 15 -73 17 -31 41 -75 54 -97 13 -22 31
-53 39 -70 9 -16 20 -37 25 -45 10 -15 104 -180 120 -210 4 -8 13 -24 19 -35
7 -11 17 -31 24 -45 7 -14 17 -32 23 -40 7 -8 28 -44 47 -80 32 -60 45 -82
101 -180 11 -19 36 -64 55 -100 19 -36 40 -72 47 -80 6 -8 17 -26 23 -40 7
-14 23 -43 37 -65 13 -22 27 -47 31 -55 4 -8 29 -53 56 -100 27 -47 54 -94 60
-105 6 -11 15 -27 20 -35 4 -8 13 -26 20 -40 7 -14 17 -32 23 -40 7 -8 28 -44
47 -80 19 -36 45 -83 58 -105 13 -22 29 -51 37 -65 10 -20 13 -141 13 -608 0
-652 -2 -629 68 -650 53 -16 636 -17 681 -1 19 7 36 22 42 36 5 14 9 274 9
610 0 523 2 588 16 616 27 51 30 58 82 147 27 47 52 92 56 100 4 8 18 33 31
55 14 22 30 51 37 65 6 14 17 32 23 40 7 8 28 44 47 80 19 36 44 81 55 100 56
98 69 120 101 180 19 36 40 72 47 80 6 8 16 26 23 40 7 14 16 33 22 43 5 9 14
25 19 35 6 9 32 55 59 102 27 47 52 92 56 100 4 8 18 33 31 55 14 22 30 51 37
65 6 14 17 32 23 40 7 8 28 44 47 80 33 61 44 81 100 178 11 20 39 70 61 111
38 70 39 75 22 88 -26 18 -818 19 -853 0 -20 -10 -51 -58 -82 -127 -4 -8 -12
-24 -17 -35 -6 -11 -21 -42 -33 -70 -39 -88 -70 -156 -89 -192 -5 -10 -19 -40
-32 -68 -12 -27 -27 -59 -32 -70 -11 -22 -14 -27 -47 -100 -23 -51 -33 -71
-49 -102 -5 -10 -19 -40 -31 -68 -12 -27 -30 -68 -41 -90 -10 -22 -30 -66 -45
-97 -14 -32 -33 -58 -40 -58 -8 0 -24 21 -35 48 -12 26 -26 56 -32 67 -18 36
-25 49 -48 100 -34 75 -35 78 -46 100 -6 11 -21 43 -34 70 -34 75 -35 78 -46
100 -6 11 -21 43 -34 70 -34 77 -35 79 -47 100 -6 11 -21 43 -33 70 -20 47
-27 61 -48 103 -5 9 -19 40 -32 67 -47 103 -72 151 -91 170 -18 19 -33 20
-437 23 -370 2 -421 1 -435 -13z"/>
</g>
<g transform="translate(0,612) scale(0.1,-0.1)" fill="#008000" stroke="none">
<path d="M9664 6044 c-450 -282 -918 -866 -1278 -1594 -45 -91 -90 -184 -99
-208 -33 -83 -43 -71 -221 279 -165 324 -179 349 -201 349 -7 0 -73 -37 -146
-83 -74 -46 -222 -136 -329 -202 -107 -65 -205 -124 -218 -132 -13 -8 -22 -21
-20 -30 2 -8 49 -39 105 -69 213 -110 414 -263 677 -514 81 -77 316 -338 316
-350 0 -14 37 -31 52 -25 7 3 26 29 42 58 158 284 580 820 891 1132 204 205
348 319 499 396 103 53 103 52 66 154 -53 148 -63 362 -30 678 19 187 19 217
-4 217 -7 0 -52 -25 -102 -56z"/>
<path d="M13021 2241 c-33 -31 -38 -58 -21 -108 18 -50 109 -73 142 -35 35 39
41 63 27 104 -23 70 -95 89 -148 39z"/>
<path d="M38 2239 c-22 -12 -26 -103 -5 -116 6 -4 98 -10 202 -13 l190 -5 3
-584 c1 -411 5 -588 13 -598 15 -17 103 -17 118 0 8 10 12 187 13 598 l3 584
190 5 c105 3 196 9 203 13 7 5 12 29 12 57 0 39 -4 52 -19 60 -27 14 -899 13
-923 -1z"/>
<path d="M1183 2243 c-10 -4 -13 -146 -13 -663 0 -732 -7 -670 70 -670 75 0
70 -24 70 337 0 351 0 353 57 403 83 74 168 110 260 110 59 0 76 -4 114 -29
27 -17 57 -48 75 -77 l29 -49 3 -342 4 -342 35 -7 c20 -4 48 -3 62 2 l26 9 3
330 c3 346 -3 424 -40 477 -10 14 -18 30 -18 35 0 15 -62 67 -110 93 -39 21
-57 24 -146 23 -82 -1 -109 -5 -142 -22 -23 -12 -47 -21 -55 -21 -8 0 -22 -9
-32 -20 -10 -11 -24 -20 -31 -20 -8 0 -21 -11 -30 -26 -11 -16 -24 -24 -38
-22 -21 3 -21 8 -24 243 -2 176 -6 241 -15 247 -13 8 -94 9 -114 1z"/>
<path d="M18212 2238 c-7 -7 -12 -26 -12 -43 0 -17 -7 -57 -15 -88 -8 -32 -18
-83 -21 -115 -3 -31 -12 -82 -19 -112 -8 -30 -19 -91 -25 -135 -6 -44 -17
-109 -25 -145 -13 -60 -22 -109 -46 -265 -5 -33 -16 -91 -24 -130 -8 -38 -22
-115 -30 -170 -18 -116 -14 -125 61 -125 50 0 61 12 70 70 3 25 12 67 20 94 8
27 14 66 14 86 0 20 7 61 15 92 8 31 19 89 24 129 21 162 37 211 78 247 50 44
121 92 136 92 7 0 23 8 37 17 17 12 51 18 111 21 83 4 89 3 123 -23 94 -71 95
-103 25 -470 -5 -27 -18 -102 -29 -165 -10 -63 -22 -128 -26 -144 -8 -35 6
-46 64 -46 54 0 82 26 82 78 0 20 5 53 10 72 6 19 20 89 30 155 11 66 25 145
31 175 34 183 37 257 14 332 -18 63 -51 104 -104 136 -39 23 -54 25 -145 25
-82 0 -111 -5 -148 -22 -26 -11 -53 -21 -61 -21 -8 0 -22 -9 -32 -20 -10 -11
-24 -20 -31 -20 -7 0 -21 -9 -31 -19 -10 -11 -27 -21 -38 -23 -18 -3 -20 2
-17 57 2 33 9 86 17 117 8 31 19 93 25 139 5 45 15 98 22 116 11 31 11 36 -7
49 -23 17 -106 19 -123 2z"/>
<path d="M21515 2219 c-9 -16 -25 -85 -35 -152 -11 -67 -24 -144 -29 -172 -6
-27 -20 -106 -31 -175 -12 -69 -26 -147 -31 -175 -5 -27 -18 -102 -29 -165
-10 -63 -24 -140 -30 -170 -61 -306 -61 -300 21 -300 62 0 89 24 89 78 0 21 9
78 20 128 11 49 20 106 20 126 0 20 5 49 10 63 6 15 17 73 25 129 8 55 22 133
30 171 8 39 19 97 24 130 23 144 33 204 46 265 8 36 19 100 26 143 13 96 7
107 -62 107 -44 0 -50 -3 -64 -31z"/>
<path d="M22645 2239 c-13 -19 -45 -163 -45 -199 0 -19 -7 -57 -15 -83 -8 -26
-17 -81 -21 -121 -10 -107 -14 -110 -75 -48 -28 28 -56 52 -61 52 -5 0 -22 10
-38 21 -25 19 -42 22 -132 21 -110 0 -146 -11 -243 -74 -68 -44 -161 -158
-180 -220 -4 -12 -12 -28 -17 -35 -9 -11 -27 -74 -48 -168 -5 -22 -9 -80 -10
-130 0 -128 33 -217 105 -283 39 -36 64 -50 106 -59 103 -24 230 -11 292 30
14 9 29 17 33 17 3 0 32 23 64 50 32 28 60 50 64 50 3 0 6 -29 6 -64 0 -76 13
-91 68 -83 43 8 62 29 62 71 0 27 21 155 51 311 5 28 19 102 29 165 11 63 24
138 29 165 6 28 20 106 31 175 12 69 26 148 31 175 6 28 17 97 26 154 13 87
13 105 2 112 -20 12 -107 11 -114 -2z m-265 -506 c34 -18 70 -48 98 -82 42
-51 43 -56 37 -100 -4 -25 -13 -71 -21 -101 -8 -30 -14 -68 -14 -85 0 -17 -9
-47 -20 -68 -11 -20 -20 -41 -20 -46 0 -6 -13 -30 -30 -54 -71 -106 -232 -195
-303 -168 -16 6 -41 11 -56 11 -20 0 -42 14 -78 49 -73 71 -87 146 -58 308 14
82 57 188 96 238 21 26 66 58 144 101 61 34 154 32 225 -3z"/>
<path d="M23633 2240 c-18 -7 -22 -20 -28 -77 -4 -37 -13 -93 -20 -123 -8 -30
-19 -91 -25 -135 -6 -44 -17 -109 -25 -145 -13 -60 -22 -109 -46 -265 -5 -33
-16 -91 -24 -130 -8 -38 -19 -104 -25 -145 -6 -41 -17 -100 -25 -130 -7 -30
-15 -79 -17 -109 -4 -66 11 -80 69 -65 33 8 40 14 53 54 32 96 56 113 81 58
31 -72 148 -128 266 -128 58 0 143 20 175 42 14 10 30 18 35 18 13 1 77 62
115 110 38 49 88 136 88 154 0 6 7 24 16 41 32 62 51 269 34 370 -18 107 -72
184 -163 232 -49 26 -220 23 -273 -4 -21 -11 -50 -26 -64 -32 -42 -20 -70 -37
-94 -60 -12 -11 -30 -21 -40 -21 -16 0 -18 6 -12 53 4 28 13 81 21 117 8 36
19 94 24 130 6 36 15 89 21 119 6 29 9 59 6 67 -6 16 -87 18 -123 4z m462
-506 c30 -17 53 -42 76 -82 31 -55 31 -58 27 -157 -5 -105 -21 -166 -70 -272
-48 -104 -129 -168 -238 -189 -84 -17 -128 -5 -196 52 -86 72 -115 190 -80
325 8 31 18 80 22 110 6 47 13 60 57 107 28 28 56 52 61 52 5 0 17 6 25 14 33
30 145 65 209 65 51 1 72 -4 107 -25z"/>
<path d="M12381 2136 c-7 -8 -17 -63 -23 -122 -14 -130 -23 -144 -101 -144
-63 0 -77 -11 -77 -61 0 -43 10 -49 80 -49 87 0 80 28 80 -335 0 -212 4 -341
12 -374 23 -101 100 -151 234 -151 71 0 174 23 185 42 15 23 -12 98 -34 98 -7
0 -39 -9 -72 -19 -72 -23 -98 -19 -144 18 -30 25 -36 37 -42 87 -13 104 -11
608 3 622 8 8 54 12 139 12 144 0 156 5 146 66 -4 20 -8 39 -11 41 -3 3 -63 4
-134 4 -97 -1 -132 2 -140 12 -7 8 -13 65 -14 138 l-3 124 -36 3 c-23 2 -40
-2 -48 -12z"/>
<path d="M2565 1881 c-104 -16 -189 -72 -256 -168 -16 -23 -29 -48 -29 -55 0
-7 -7 -26 -16 -43 -23 -44 -37 -178 -29 -282 17 -229 129 -380 309 -419 72
-16 220 -18 279 -5 23 6 58 12 77 16 19 3 49 16 65 29 l30 24 -19 34 c-11 18
-23 36 -28 39 -5 3 -34 -2 -65 -13 -91 -29 -209 -34 -290 -12 -59 16 -76 27
-128 79 -49 49 -63 72 -78 120 -21 73 -22 91 -1 99 9 3 150 6 313 6 355 0 331
-9 338 127 8 145 -19 241 -91 321 -66 72 -128 99 -243 105 -48 3 -110 2 -138
-2z m193 -116 c39 -12 59 -26 85 -58 60 -74 90 -244 48 -267 -21 -11 -477 -15
-505 -4 -20 8 -20 39 1 117 21 76 51 124 106 168 71 58 164 74 265 44z"/>
<path d="M5363 1880 c-34 -5 -75 -16 -92 -24 -16 -9 -37 -16 -46 -16 -9 0 -27
-11 -40 -24 -26 -26 -25 -46 3 -78 20 -23 39 -23 98 4 42 19 68 22 180 22 126
1 132 0 170 -26 51 -36 77 -80 85 -148 10 -90 10 -90 -149 -90 -219 0 -320
-28 -402 -113 -49 -51 -69 -107 -70 -202 0 -110 37 -186 114 -237 54 -34 107
-48 186 -48 111 0 209 42 267 115 39 48 59 46 68 -7 15 -89 50 -118 106 -88
18 10 19 25 19 345 0 360 -5 410 -50 482 -59 92 -137 130 -283 137 -56 3 -130
1 -164 -4z m359 -504 c9 -13 -1 -120 -14 -155 -18 -48 -80 -130 -116 -152 -73
-45 -114 -59 -171 -59 -66 0 -118 23 -157 69 -24 28 -27 41 -26 102 0 49 5 78
18 96 20 31 75 83 87 83 5 0 23 7 40 15 22 10 73 16 162 17 141 4 166 1 177
-16z"/>
<path d="M7995 1880 c-33 -5 -73 -15 -90 -24 -16 -9 -39 -16 -51 -16 -43 0
-68 -56 -44 -101 14 -25 47 -24 107 3 41 18 67 21 178 22 128 1 131 0 173 -28
28 -19 49 -44 62 -74 22 -50 27 -134 7 -150 -7 -6 -80 -13 -162 -15 -176 -6
-234 -15 -294 -47 -205 -109 -213 -415 -14 -516 96 -48 259 -45 335 8 14 10
30 18 36 18 10 0 70 65 88 95 17 30 32 9 39 -55 8 -66 28 -90 76 -90 51 0 51
2 47 392 l-3 363 -27 50 c-32 61 -77 105 -143 139 -43 22 -68 27 -155 30 -58
3 -132 1 -165 -4z m353 -548 c2 -32 -4 -75 -14 -105 -19 -57 -79 -147 -99
-147 -7 0 -18 -7 -25 -15 -44 -53 -187 -72 -260 -34 -49 26 -65 48 -80 111
-15 60 6 141 47 180 61 57 103 67 273 65 l155 -2 3 -53z"/>
<path d="M8975 1881 c-62 -10 -141 -49 -178 -89 -37 -38 -60 -125 -47 -173 6
-18 10 -45 10 -59 0 -16 16 -41 44 -70 59 -60 90 -81 161 -108 33 -13 79 -32
103 -43 23 -10 48 -19 55 -19 6 0 34 -16 60 -36 104 -76 100 -190 -8 -251 -54
-30 -188 -32 -300 -3 -43 11 -84 20 -91 20 -7 0 -19 -19 -26 -41 -11 -40 -11
-43 14 -64 48 -42 312 -58 443 -28 60 14 122 58 155 111 27 42 30 55 30 131 0
72 -4 91 -24 126 -27 45 -105 115 -129 115 -8 0 -20 7 -27 15 -6 8 -22 17 -33
20 -27 8 -111 39 -194 73 -111 44 -147 136 -80 208 47 51 138 70 257 53 47 -7
98 -18 113 -26 40 -20 65 -9 73 32 9 50 2 59 -59 83 -63 24 -238 36 -322 23z"/>
<path d="M9840 1880 c-97 -14 -177 -70 -211 -148 -23 -54 -24 -88 -2 -155 17
-52 76 -137 96 -137 6 0 20 -8 31 -19 12 -10 48 -28 81 -41 33 -12 78 -31 101
-41 23 -11 46 -19 52 -19 15 0 93 -53 116 -79 14 -15 19 -37 20 -80 1 -69 -18
-97 -90 -132 -37 -17 -57 -20 -146 -16 -57 2 -131 12 -167 22 l-64 18 -18 -24
c-24 -31 -24 -62 1 -84 44 -40 313 -59 431 -31 131 31 199 115 199 244 0 89
-26 149 -84 197 -43 35 -131 85 -151 85 -5 1 -28 9 -50 20 -22 11 -48 19 -58
20 -25 0 -118 50 -144 77 -25 26 -38 80 -28 115 11 37 66 88 94 88 15 0 43 5
65 11 46 13 194 -5 241 -29 28 -14 30 -14 57 19 36 42 36 67 1 79 -16 6 -36
15 -46 21 -22 12 -163 29 -227 28 -25 -1 -70 -5 -100 -9z"/>
<path d="M10805 1881 c-27 -4 -73 -19 -101 -34 -53 -28 -144 -102 -144 -118 0
-5 -8 -21 -17 -36 -51 -77 -76 -235 -63 -388 5 -49 15 -103 24 -120 9 -16 16
-36 16 -42 0 -38 122 -183 153 -183 6 0 18 -7 28 -16 64 -58 415 -54 499 6 36
26 37 40 6 76 l-23 28 -80 -22 c-142 -39 -281 -23 -366 42 -36 27 -97 107 -97
126 0 5 -7 31 -16 57 -25 74 -30 73 322 73 268 0 303 2 315 17 10 11 15 52 17
132 3 106 1 122 -23 186 -56 146 -145 210 -307 219 -51 2 -115 1 -143 -3z
m191 -116 c64 -19 108 -65 134 -139 25 -74 28 -181 4 -190 -25 -10 -498 -7
-513 3 -13 8 -12 20 4 88 23 97 43 131 108 187 76 63 164 81 263 51z"/>
<path d="M11903 1881 c-23 -4 -51 -15 -61 -24 -10 -9 -24 -17 -30 -17 -6 0
-34 -27 -63 -60 -41 -46 -56 -57 -66 -48 -7 6 -13 21 -13 35 0 36 -26 90 -49
103 -16 8 -28 8 -49 -2 l-27 -13 -3 -460 c-2 -424 -1 -461 15 -472 21 -16 95
-17 111 -1 9 9 12 98 12 339 0 319 0 327 22 355 41 55 92 104 108 104 9 0 25
7 36 15 22 17 139 21 149 5 13 -22 43 -10 55 23 26 70 28 86 17 100 -14 17
-105 27 -164 18z"/>
<path d="M13770 1881 c-93 -13 -150 -43 -222 -114 -37 -37 -68 -73 -68 -80 0
-7 -7 -25 -16 -42 -43 -80 -57 -282 -29 -412 27 -127 96 -228 190 -279 11 -6
29 -15 40 -21 90 -48 332 -42 407 9 14 10 31 18 38 18 22 0 109 98 138 156 31
62 62 206 62 284 0 68 -36 223 -64 278 -31 61 -120 143 -190 175 -59 27 -199
41 -286 28z m175 -120 c40 -7 50 -14 122 -75 73 -63 111 -214 93 -371 -16
-140 -69 -222 -182 -281 -61 -31 -170 -34 -226 -5 -64 33 -132 101 -160 160
-25 53 -27 65 -27 206 0 124 3 155 17 180 10 17 18 35 18 40 0 29 125 137 169
146 50 9 128 10 176 0z"/>
<path d="M14965 1881 c-66 -11 -162 -62 -227 -120 -38 -33 -58 -22 -58 32 0
59 -16 77 -67 80 -23 0 -46 -2 -50 -7 -14 -13 -15 -926 -2 -942 14 -17 100
-19 117 -2 9 9 12 97 12 336 l0 324 58 58 c81 80 167 120 261 120 59 0 76 -4
108 -26 57 -39 72 -58 93 -126 18 -57 20 -93 20 -368 0 -225 3 -309 12 -318
17 -17 93 -15 107 2 9 10 11 111 9 378 -3 339 -4 366 -23 403 -58 116 -136
170 -255 178 -41 3 -93 2 -115 -2z"/>
<path d="M15845 1880 c-60 -9 -140 -51 -176 -91 -73 -82 -63 -223 22 -308 25
-25 52 -51 60 -57 20 -15 129 -64 143 -64 6 -1 29 -9 51 -20 22 -11 47 -19 55
-20 8 0 37 -17 64 -38 41 -31 52 -45 63 -87 11 -46 11 -54 -10 -95 -33 -68
-83 -89 -212 -89 -59 -1 -116 5 -140 13 -22 7 -57 16 -77 20 -36 6 -38 5 -52
-29 -27 -63 0 -85 124 -105 73 -12 254 -9 331 5 56 11 130 72 162 135 25 49
28 63 24 125 -3 53 -10 80 -29 110 -26 41 -103 115 -120 115 -6 0 -21 9 -35
20 -14 11 -34 20 -44 20 -11 0 -36 9 -56 20 -21 11 -47 20 -58 20 -11 0 -29 6
-40 14 -11 7 -31 17 -45 21 -14 4 -40 21 -57 38 -30 28 -33 37 -33 87 0 53 2
58 38 86 71 57 243 65 356 16 38 -16 38 -16 62 11 13 16 24 39 24 52 0 60
-221 102 -395 75z"/>
<path d="M17403 1881 c-28 -5 -62 -16 -74 -25 -13 -9 -30 -16 -39 -16 -8 0
-38 -20 -66 -45 -59 -51 -84 -110 -84 -195 0 -107 82 -194 225 -240 22 -7 49
-19 60 -26 11 -8 27 -14 37 -14 10 0 38 -19 63 -43 39 -38 45 -49 45 -85 0
-80 -33 -127 -114 -162 -58 -24 -211 -28 -272 -6 -22 7 -58 17 -81 20 -39 7
-43 6 -57 -23 -20 -38 -20 -65 -1 -81 43 -35 317 -52 426 -26 72 17 141 58
177 104 66 85 91 207 56 273 -20 40 -83 109 -99 109 -7 0 -18 7 -25 15 -7 8
-26 19 -44 24 -157 48 -245 98 -258 146 -22 85 49 164 166 184 76 13 197 1
250 -25 40 -19 55 -18 66 9 5 12 16 31 24 42 20 27 11 37 -57 63 -66 25 -236
37 -324 23z"/>
<path d="M19535 1881 c-85 -14 -198 -76 -260 -143 -30 -33 -63 -76 -73 -96
-10 -20 -23 -46 -29 -57 -44 -83 -79 -261 -69 -350 10 -89 22 -140 41 -175 23
-42 75 -100 89 -100 5 0 17 -7 27 -16 25 -23 123 -43 209 -44 89 0 205 22 229
44 10 9 25 16 34 16 22 0 172 149 182 180 4 14 15 36 25 50 9 14 20 36 23 50
3 14 13 45 23 70 14 36 18 76 18 200 1 154 1 155 -28 204 -71 118 -152 164
-297 171 -52 2 -117 0 -144 -4z m251 -162 c68 -67 84 -108 84 -217 0 -185 -75
-360 -184 -430 -65 -42 -106 -55 -187 -59 -63 -4 -84 -1 -117 16 -53 27 -119
104 -133 155 -14 51 -6 186 16 264 38 132 99 222 188 279 55 35 94 43 200 39
l89 -4 44 -43z"/>
<path d="M24925 1880 c-65 -12 -179 -71 -229 -118 -63 -61 -109 -141 -156
-272 -20 -56 -23 -85 -24 -215 -1 -148 -1 -151 28 -200 55 -94 111 -139 205
-161 120 -29 360 -8 422 37 27 19 30 26 25 53 -4 17 -10 34 -15 39 -6 6 -49 1
-105 -12 -206 -45 -335 -11 -401 107 -30 54 -45 153 -25 177 11 13 57 15 325
15 260 0 315 2 325 14 22 27 43 131 47 234 4 91 2 110 -17 150 -49 106 -124
150 -263 157 -50 2 -115 0 -142 -5z m179 -112 c55 -15 82 -41 100 -96 25 -72
14 -214 -17 -234 -7 -4 -121 -8 -253 -8 -298 0 -289 -5 -226 130 48 106 129
182 216 206 56 15 130 16 180 2z"/>
<path d="M3729 1864 c-9 -11 -8 -25 1 -56 13 -47 42 -165 60 -243 7 -27 16
-68 22 -90 31 -125 71 -290 106 -442 24 -104 40 -123 102 -123 54 0 71 14 90
75 6 22 16 54 22 70 5 17 19 58 29 93 10 34 28 91 39 127 88 287 90 292 108
365 11 42 22 65 31 65 10 0 19 -21 27 -65 14 -75 30 -134 54 -205 39 -112 60
-181 60 -195 1 -8 9 -33 20 -55 11 -22 20 -51 20 -65 0 -14 7 -38 16 -55 8
-16 20 -51 25 -77 13 -58 38 -78 96 -78 67 0 73 10 123 235 13 55 31 129 40
165 10 36 28 110 40 165 12 55 30 129 40 165 41 154 52 212 43 221 -6 6 -36 9
-69 7 -65 -3 -56 9 -84 -113 -22 -100 -32 -141 -50 -215 -10 -41 -22 -95 -25
-119 -4 -24 -13 -58 -20 -75 -7 -17 -16 -64 -19 -105 -4 -40 -11 -83 -15 -95
-8 -20 -9 -19 -29 14 -12 19 -24 55 -28 80 -4 25 -11 54 -17 65 -6 11 -19 48
-29 83 -10 34 -27 91 -38 127 -11 36 -29 95 -41 133 -11 37 -27 92 -36 121
-25 92 -35 101 -109 101 -54 0 -65 -3 -78 -22 -9 -12 -16 -32 -16 -43 -1 -11
-8 -38 -16 -60 -9 -22 -20 -58 -25 -80 -5 -22 -15 -56 -23 -75 -7 -19 -24 -69
-36 -110 -13 -41 -31 -97 -41 -125 -9 -27 -22 -72 -29 -100 -23 -92 -40 -148
-45 -154 -13 -13 -25 28 -25 89 0 36 -9 97 -20 135 -11 38 -20 81 -20 95 -1
14 -7 43 -15 65 -8 22 -20 69 -26 105 -5 36 -16 85 -24 110 -8 25 -16 66 -20
91 -3 26 -14 53 -23 62 -24 21 -108 28 -123 11z"/>
<path d="M6175 1866 c-15 -11 -17 -44 -12 -357 4 -312 7 -349 25 -398 26 -71
79 -132 143 -166 46 -24 64 -27 143 -27 78 0 99 4 151 28 33 15 81 49 108 76
26 26 52 48 57 48 17 0 23 -51 17 -148 -10 -143 -44 -200 -154 -254 -60 -29
-67 -30 -160 -26 -64 3 -109 11 -130 21 -18 10 -41 17 -51 17 -11 0 -25 7 -32
15 -7 8 -16 15 -20 15 -14 0 -60 -88 -54 -104 7 -19 48 -46 69 -46 9 0 29 -7
45 -15 39 -20 196 -34 286 -25 122 12 244 88 291 181 58 116 58 113 61 656 4
572 12 525 -88 514 l-55 -6 -5 -324 -5 -323 -73 -69 c-41 -38 -80 -69 -88 -69
-8 0 -25 -7 -38 -15 -13 -9 -53 -18 -88 -22 -57 -5 -71 -3 -107 17 -46 26 -84
78 -96 130 -4 19 -10 175 -12 347 -3 227 -7 314 -16 321 -20 16 -94 21 -112 8z"/>
<path d="M21042 1872 c-52 -4 -69 -32 -78 -124 -3 -35 -10 -77 -15 -95 -6 -17
-18 -84 -29 -150 -10 -65 -24 -145 -30 -178 -7 -33 -14 -69 -16 -80 -4 -23
-76 -103 -118 -131 -73 -48 -134 -74 -200 -84 -89 -14 -133 1 -172 60 -26 39
-27 43 -21 148 4 59 13 129 22 156 8 27 15 66 15 85 0 20 7 62 15 93 8 31 19
91 25 134 6 44 13 98 17 122 l6 42 -62 0 c-54 0 -62 -3 -70 -22 -12 -30 -39
-172 -52 -268 -5 -41 -14 -89 -20 -107 -5 -17 -14 -62 -19 -100 -5 -37 -14
-109 -21 -158 -11 -85 -11 -95 10 -158 18 -54 31 -74 64 -100 50 -40 104 -57
180 -57 66 0 163 23 187 45 9 8 22 15 29 15 13 0 59 34 97 71 12 12 30 19 40
17 16 -3 19 -13 20 -61 0 -31 3 -60 7 -63 10 -10 82 -15 94 -6 14 9 26 56 53
222 11 63 24 140 30 170 35 179 50 269 51 300 0 19 6 53 14 75 8 22 17 70 21
106 7 78 -1 86 -74 81z"/>
<path d="M13017 1864 c-4 -4 -7 -218 -7 -475 0 -416 2 -468 16 -473 22 -9 97
-7 112 2 10 7 12 109 10 478 l-3 469 -60 3 c-34 2 -64 0 -68 -4z"/>
<path d="M23169 617 c-3 -4 -327 -11 -720 -18 -393 -6 -745 -15 -784 -19 -38
-5 -214 -14 -390 -19 -176 -6 -351 -15 -390 -21 -38 -6 -176 -15 -306 -20
-130 -5 -281 -16 -335 -24 -55 -8 -173 -17 -264 -20 -91 -3 -183 -11 -205 -16
-22 -6 -115 -15 -207 -20 -92 -5 -205 -16 -250 -24 -46 -8 -136 -17 -200 -20
-64 -3 -145 -12 -180 -20 -35 -8 -114 -17 -176 -20 -62 -4 -140 -13 -175 -20
-34 -8 -106 -17 -159 -21 -53 -3 -112 -10 -130 -16 -18 -5 -78 -14 -133 -19
-55 -6 -129 -17 -165 -25 -36 -7 -99 -17 -140 -20 -41 -4 -93 -11 -115 -17
-22 -6 -80 -16 -130 -23 -130 -19 -336 -63 -352 -76 -19 -17 -16 -47 7 -59 15
-8 43 -8 98 -1 42 6 140 15 217 21 77 6 174 17 215 25 41 8 111 17 155 20 44
4 107 13 140 20 33 7 102 16 154 19 52 4 121 13 155 20 33 8 104 17 156 20 52
4 131 13 175 21 44 7 125 16 180 20 55 3 138 12 185 20 47 7 137 17 200 20 63
4 156 13 205 20 50 8 146 16 215 20 69 4 175 13 235 20 61 7 173 16 250 20 77
3 201 12 275 20 74 8 209 16 300 20 91 3 248 12 350 20 102 8 277 17 390 20
113 3 356 13 540 23 422 21 2599 24 2971 5 249 -13 292 -9 311 33 9 20 8 28
-8 45 -43 48 100 42 -1624 65 -294 3 -538 4 -541 1z"/>
</g>
</svg>
